<svg width="500" height="500" viewBox="0 0 500 500" xmlns="http://www.w3.org/2000/svg">
  <g stroke="black" stroke-width="18" stroke-linejoin="round" stroke-linecap="square">
    <rect x="100" y="80" width="300" height="380" rx="30" fill="#F5F5DC"/>
    <rect x="130" y="120" width="240" height="120" fill="#90EE90"/>
    <path d="M160,150 L200,150 L200,210 L160,210 Z M160,180 L200,180" fill="none" stroke-width="10"/>
    <path d="M260,150 L300,150 L300,210 L260,210 Z M260,180 L300,180" fill="none" stroke-width="10"/>
    <rect x="130" y="300" width="70" height="60" rx="10" fill="#A9A9A9"/>
    <rect x="215" y="300" width="70" height="60" rx="10" fill="#A9A9A9"/>
    <rect x="300" y="300" width="70" height="60" rx="10" fill="#A9A9A9"/>
    <rect x="215" y="380" width="70" height="60" rx="10" fill="#A9A9A9"/>
    <line x1="250" y1="395" x2="250" y2="425"/>
    <line x1="235" y1="410" x2="265" y2="410"/>
  </g>
</svg>