<svg xmlns="http://www.w3.org/2000/svg" viewBox="0 0 200 200" width="400" height="400">
  <defs>
    <style>
      /* Reusable class for thick contour lines */
      .thick-stroke {
        stroke: #000000; /* Solid black outline */
        stroke-width: 7px; /* Thick line width */
        stroke-linecap: round; /* Rounded line ends */
        stroke-linejoin: round; /* Rounded corners */
      }
      /* Slightly thinner for internal details */
      .medium-stroke {
        stroke: #000000;
        stroke-width: 4px;
        stroke-linecap: round;
        stroke-linejoin: round;
      }
    </style>
  </defs>

  <path d="M 50 70 Q 30 110 50 140 Q 70 170 100 160 Q 130 170 150 140 Q 170 110 150 70 Q 130 40 100 50 Q 70 40 50 70 Z" fill="#CE93D8" class="thick-stroke"/>

  <path d="M 60 50 C 50 30, 70 30, 60 10" fill="none" class="thick-stroke"/>
  <polygon points="60,5 63,15 73,15 65,22 68,32 60,25 52,32 55,22 47,15 57,15" fill="#FFF59D" class="thick-stroke"/>

  <line x1="140" y1="55" x2="150" y2="25" class="thick-stroke"/>
  <circle cx="150" cy="25" r="12" fill="#80CBC4" class="thick-stroke"/>
  <line x1="150" y1="13" x2="150" y2="37" class="medium-stroke"/>
  <line x1="138" y1="25" x2="162" y2="25" class="medium-stroke"/>


  <circle cx="75" cy="105" r="20" fill="#FFFFFF" class="thick-stroke"/>
  <path d="M 75 105 m -10 0 a 10 10 0 1 0 20 0 a 10 10 0 1 0 -20 0 M 75 105 m -5 0 a 5 5 0 1 1 10 0 a 5 5 0 1 1 -10 0" fill="none" stroke="#4DD0E1" class="medium-stroke"/>

  <polygon points="130,90 135,105 150,105 138,115 143,130 130,120 117,130 122,115 110,105 125,105" fill="#FFF59D" class="thick-stroke"/>

  <circle cx="55" cy="145" r="10" fill="#F48FB1" class="thick-stroke"/>
  <path d="M 55 145 L 60 140" stroke="#FFFFFF" class="medium-stroke"/> <circle cx="145" cy="145" r="10" fill="#F48FB1" class="thick-stroke"/>
  <path d="M 145 145 L 140 140" stroke="#FFFFFF" class="medium-stroke"/> <path d="M 85 155 Q 100 165 115 155" fill="none" class="thick-stroke"/>
  <circle cx="125" cy="150" r="5" fill="#80CBC4" class="thick-stroke"/>
  <circle cx="135" cy="140" r="7" fill="#80CBC4" class="thick-stroke"/>

</svg>