<svg width="500" height="500" viewBox="0 0 500 500" xmlns="http://www.w3.org/2000/svg">
  <g stroke="black" stroke-width="20" stroke-linecap="round" stroke-linejoin="round">
    
    <rect x="100" y="150" width="300" height="250" rx="40" ry="50" fill="#FF69B4"/>

    <circle cx="190" cy="240" r="65" fill="#FFFFFF"/>
    <circle cx="330" cy="260" r="35" fill="#FFFFFF"/>
    
    <circle cx="160" cy="220" r="20" fill="black"/>
    <circle cx="350" cy="270" r="10" fill="black"/>

    <path d="M210,150 C210,110 290,110 290,150" fill="#FF0000" stroke-width="15"/>
    <line x1="250" y1="110" x2="250" y2="80" stroke-width="15"/>
    <ellipse cx="250" cy="80" rx="70" ry="15" fill="#FF0000"/>

    <line x1="180" y1="340" x2="320" y2="340"/>
    <path d="M220,340 C220,340 210,430 250,430 C290,430 280,340 280,340 L220,340 Z" fill="#FF0000"/>
    <line x1="250" y1="340" x2="250" y2="410" stroke-width="10"/>
    
  </g>
</svg>